<svg xmlns="http://www.w3.org/2000/svg" viewBox="0 0 88.04 23.32"><defs><style>.cls-1{isolation:isolate;}.cls-2{fill:#231f20;}</style></defs><title>oleg-chursin-logo-blck</title><g id="Layer_2" data-name="Layer 2"><g id="Layer_1-2" data-name="Layer 1"><g id="Layer_2-2" data-name="Layer 2"><g id="Layer_1-2-2" data-name="Layer 1-2"><g class="cls-1"><g class="cls-1"><path class="cls-2" d="M8.62,4.53a4.12,4.12,0,0,1-4.3,4.35A4.1,4.1,0,0,1,0,4.55,4.2,4.2,0,0,1,4.32.12,4.16,4.16,0,0,1,8.62,4.53Zm-7.06,0A2.66,2.66,0,0,0,4.32,7.42,2.64,2.64,0,0,0,7.06,4.56a2.71,2.71,0,0,0-2.74-3A2.72,2.72,0,0,0,1.56,4.57Z"/><path class="cls-2" d="M11.38.29V7.22h4.31V8.68H9.79V.29Z"/><path class="cls-2" d="M23.07,8.68H16.79V.29h6.28V1.82H18.36V3.75H22.9V5.23H18.36V7.12h4.71Z"/><path class="cls-2" d="M30.54,2.34A3.24,3.24,0,0,0,28.4,1.5a2.86,2.86,0,0,0-2.89,3.09A2.66,2.66,0,0,0,28.4,7.4a2.79,2.79,0,0,0,1.9-.67V5.24H28.15V3.83h3.6V7.36A4.19,4.19,0,0,1,28.4,8.88,4.05,4.05,0,0,1,24,4.59,4.27,4.27,0,0,1,28.4.05a4.43,4.43,0,0,1,3.12,1.28Z"/></g><g class="cls-1"><path class="cls-2" d="M42.87,7.63a4.43,4.43,0,0,1-3.19,1.25,4.13,4.13,0,0,1-4.45-4.33A4.23,4.23,0,0,1,39.68.12,4.32,4.32,0,0,1,42.76,1.4l-1,1a2.89,2.89,0,0,0-2-.79,2.75,2.75,0,0,0-2.89,2.92,2.69,2.69,0,0,0,2.89,2.84,3.1,3.1,0,0,0,2.11-.85Z"/></g><g class="cls-1"><path class="cls-2" d="M49.48,8.7V5.3H45.36V8.7H43.77V.3h1.59V3.84h4.12V.3h1.57V8.7Z"/><path class="cls-2" d="M59.91.3V5.11a3.41,3.41,0,0,1-3.63,3.75,3.5,3.5,0,0,1-3.73-3.75V.3h1.57V5.11a2.05,2.05,0,0,0,2.17,2.31c1.3,0,2.05-.87,2.05-2.31V.3Z"/></g><g class="cls-1"><path class="cls-2" d="M68.91,8.68H67l-2.45-2.8H63.06v2.8H61.47V.28h4a2.78,2.78,0,0,1,3,2.78,2.49,2.49,0,0,1-2.12,2.64l2.54,2.87ZM63.06,1.76V4.45h2.41a1.31,1.31,0,0,0,1.44-1.34,1.32,1.32,0,0,0-1.44-1.35Z"/></g><g class="cls-1"><path class="cls-2" d="M75.11,2.32a2.37,2.37,0,0,0-2-.94c-1.17,0-1.74.49-1.74,1.12s.87.93,1.87,1c1.75.22,3.39.67,3.39,2.67S75,8.9,73.11,8.9c-1.72,0-3-.53-3.66-2.06l1.32-.69a2.38,2.38,0,0,0,2.36,1.33c1,0,1.93-.34,1.93-1.26S74.24,5.11,73.12,5c-1.71-.2-3.3-.66-3.3-2.54S71.53,0,73.07,0a3.38,3.38,0,0,1,3.3,1.67Z"/><path class="cls-2" d="M77.88,8.68V.29h1.57V8.68Z"/><path class="cls-2" d="M86.45.28H88v8.4h-1v0L82.64,3V8.68H81.06V.29h1.28l4.11,5.2Z"/></g></g><g class="cls-1"><g class="cls-1"><path class="cls-2" d="M15.9,18.33h.39l1.28,3.12,1.29-3.12h.38l-1.47,3.52h-.39Z"/><path class="cls-2" d="M20.29,17.18a.29.29,0,0,1-.57,0A.29.29,0,1,1,20.29,17.18Zm-.47,1.13v3.54h.35V18.31Z"/><path class="cls-2" d="M23.59,19a1.49,1.49,0,0,0-1.1-.37c-.55,0-1.08.2-1.06.65s.63.56,1.07.64c.63.11,1.49.21,1.46,1s-.83,1-1.45,1A1.83,1.83,0,0,1,21,21.2l.26-.22a1.56,1.56,0,0,0,1.29.6c.43,0,1.08-.12,1.1-.68s-.57-.6-1.15-.7-1.36-.24-1.37-.95.69-1,1.4-1a1.85,1.85,0,0,1,1.32.47Z"/><path class="cls-2" d="M27.58,21.85v-.63a1.44,1.44,0,0,1-1.26.69,1.47,1.47,0,0,1-1.59-1.56v-2h.35v2a1.12,1.12,0,0,0,1.25,1.22,1.23,1.23,0,0,0,1.24-1.29v-2h.35v3.53Z"/><path class="cls-2" d="M32.23,18.33v3.52h-.35V21.1a1.65,1.65,0,0,1-1.44.81,1.82,1.82,0,0,1,0-3.63,1.6,1.6,0,0,1,1.44.82v-.77ZM29,20.09a1.41,1.41,0,0,0,1.44,1.48,1.48,1.48,0,0,0,0-2.95A1.41,1.41,0,0,0,29,20.09Z"/><path class="cls-2" d="M33.53,16.85v5h-.35v-5Z"/></g><g class="cls-1"><path class="cls-2" d="M36.26,20.09a1.77,1.77,0,0,1,1.79-1.82,1.64,1.64,0,0,1,1.74,2H36.61a1.4,1.4,0,0,0,1.44,1.31A1.65,1.65,0,0,0,39.32,21l.25.19a1.94,1.94,0,0,1-1.52.68A1.73,1.73,0,0,1,36.26,20.09ZM39.48,20a1.3,1.3,0,0,0-1.43-1.36A1.41,1.41,0,0,0,36.61,20Z"/></g><g class="cls-1"><path class="cls-2" d="M41.87,19.77l1.05-1.44h.42L42.08,20l1.36,1.81H43l-1.16-1.57-1.16,1.57H40.3L41.66,20,40.4,18.34h.42Z"/><path class="cls-2" d="M44.1,23.32v-5h.34v.83a1.73,1.73,0,0,1,3.24.93,1.71,1.71,0,0,1-1.79,1.83A1.61,1.61,0,0,1,44.43,21v2.28Zm3.23-3.23a1.36,1.36,0,0,0-1.44-1.48,1.49,1.49,0,0,0,0,3A1.37,1.37,0,0,0,47.33,20.09Z"/><path class="cls-2" d="M48.34,20.09a1.77,1.77,0,0,1,1.79-1.82,1.64,1.64,0,0,1,1.74,2H48.7a1.38,1.38,0,0,0,1.43,1.31A1.65,1.65,0,0,0,51.4,21l.25.19a1.94,1.94,0,0,1-1.52.68A1.73,1.73,0,0,1,48.34,20.09ZM51.56,20a1.3,1.3,0,0,0-1.43-1.36A1.4,1.4,0,0,0,48.7,20Z"/><path class="cls-2" d="M53.11,18.33V19a1.25,1.25,0,0,1,1.17-.66,1.31,1.31,0,0,1,.76.21l-.16.28a1.15,1.15,0,0,0-.6-.16,1.17,1.17,0,0,0-1.16,1.18v2.05h-.35V18.33Z"/><path class="cls-2" d="M56,17.18a.28.28,0,0,1-.56,0A.28.28,0,1,1,56,17.18Zm-.46,1.13v3.54h.35V18.31Z"/><path class="cls-2" d="M56.73,20.09a1.77,1.77,0,0,1,1.79-1.82,1.64,1.64,0,0,1,1.74,2H57.08a1.4,1.4,0,0,0,1.44,1.31A1.65,1.65,0,0,0,59.79,21l.25.19a1.94,1.94,0,0,1-1.52.68A1.73,1.73,0,0,1,56.73,20.09ZM60,20a1.3,1.3,0,0,0-1.43-1.36A1.41,1.41,0,0,0,57.08,20Z"/><path class="cls-2" d="M61.51,18.33V19a1.43,1.43,0,0,1,1.26-.69,1.47,1.47,0,0,1,1.59,1.56v2H64v-2a1.14,1.14,0,0,0-1.26-1.23,1.23,1.23,0,0,0-1.23,1.29v2h-.35V18.33Z"/></g><g class="cls-1"><path class="cls-2" d="M68.15,21.36a1.8,1.8,0,0,1-1.29.53,1.8,1.8,0,1,1,0-3.6,1.84,1.84,0,0,1,1.29.53l-.23.22a1.49,1.49,0,0,0-1.06-.42,1.47,1.47,0,0,0,0,2.94,1.47,1.47,0,0,0,1-.44Z"/></g><g class="cls-1"><path class="cls-2" d="M68.81,20.09a1.77,1.77,0,0,1,1.79-1.82,1.64,1.64,0,0,1,1.74,2H69.16a1.4,1.4,0,0,0,1.44,1.31A1.65,1.65,0,0,0,71.87,21l.25.19a1.94,1.94,0,0,1-1.52.68A1.73,1.73,0,0,1,68.81,20.09ZM72,20a1.3,1.3,0,0,0-1.43-1.36A1.41,1.41,0,0,0,69.16,20Z"/></g></g><rect class="cls-2" x="8" y="13.24" width="72.69" height="0.69"/></g></g></g></g></svg>